<?xml version="1.0" standalone="no"?>
<!DOCTYPE svg PUBLIC "-//W3C//DTD SVG 20010904//EN"
 "http://www.w3.org/TR/2001/REC-SVG-20010904/DTD/svg10.dtd">
<svg version="1.0" xmlns="http://www.w3.org/2000/svg"
 width="500.000000pt" height="500.000000pt" viewBox="0 0 500.000000 500.000000"
 preserveAspectRatio="xMidYMid meet">

<g transform="translate(0.000000,500.000000) scale(0.100000,-0.100000)"
fill="#000000" stroke="none">
<path d="M2687 4464 c-16 -5 -18 -14 -13 -82 10 -140 17 -362 12 -362 -2 0
-37 99 -77 220 l-73 220 -58 0 c-52 0 -62 -4 -94 -33 -30 -27 -37 -42 -41 -82
-3 -28 -26 -96 -53 -155 -40 -88 -47 -112 -43 -150 4 -39 0 -51 -26 -84 -36
-45 -38 -60 -11 -79 16 -11 19 -23 16 -63 -2 -27 -7 -57 -11 -67 -4 -10 -2
-23 5 -32 7 -8 9 -30 5 -57 -3 -24 -2 -48 2 -54 24 -33 111 -45 182 -24 19 5
37 8 39 5 2 -2 -8 -57 -23 -122 -67 -294 -236 -1096 -232 -1106 2 -6 52 73
112 174 346 587 356 601 443 696 84 92 122 114 122 73 0 -11 9 -47 21 -81 l21
-60 -32 -97 c-26 -77 -31 -107 -27 -147 6 -46 82 -313 93 -325 5 -4 51 45 161
169 l30 34 74 -77 c107 -114 299 -269 567 -459 l122 -87 313 -106 c171 -58
374 -126 451 -152 l138 -47 30 -53 c23 -41 44 -60 92 -88 33 -20 64 -41 68
-48 4 -6 8 43 8 109 l0 120 -59 52 c-34 30 -115 82 -188 121 -70 38 -265 143
-433 232 l-305 164 -216 173 c-184 148 -222 183 -264 245 -61 89 -201 233
-273 278 -46 29 -52 37 -48 59 12 55 56 414 70 561 11 112 13 174 6 225 -30
215 -129 362 -289 426 -45 17 -80 22 -176 25 -66 1 -128 0 -138 -2z"/>
<path d="M0 4351 l0 -108 60 -7 c33 -3 87 -9 120 -12 l60 -7 365 -319 364
-319 468 -270 c257 -149 471 -273 474 -275 3 -2 27 27 52 65 45 65 146 169
217 223 19 14 33 28 30 30 -3 3 -77 34 -165 71 -161 66 -238 90 -330 102 -48
7 -101 32 -425 203 -58 30 -298 184 -535 342 l-430 287 -153 51 c-84 29 -157
52 -163 52 -5 0 -9 -47 -9 -109z"/>
<path d="M2665 2024 c-184 -53 -286 -67 -515 -70 l-205 -1 -6 -54 c-12 -106
-69 -174 -271 -321 -80 -59 -141 -116 -247 -232 -215 -236 -302 -308 -432
-358 -32 -13 -59 -26 -59 -30 0 -4 19 -18 43 -30 60 -31 158 -29 253 6 85 31
115 33 138 7 30 -33 18 -82 -26 -110 -21 -13 -36 -26 -34 -29 9 -9 144 42 236
89 153 78 308 214 396 348 l29 45 6 -30 c16 -73 9 -125 -26 -201 -19 -42 -35
-81 -35 -86 0 -6 18 6 40 28 22 21 41 37 43 34 2 -2 16 -62 31 -134 33 -154
86 -341 127 -445 30 -78 87 -185 95 -178 2 3 17 129 33 281 25 245 40 322 58
304 3 -3 -33 -378 -54 -556 l-6 -53 209 7 209 7 103 101 c110 109 164 188 247
359 l47 96 31 -9 c18 -5 40 -9 49 -9 15 0 16 3 3 34 -20 47 -4 101 38 127 36
22 54 21 162 -10 69 -19 205 -28 252 -15 l22 6 -27 40 c-39 59 -43 147 -9 214
30 59 48 76 107 103 39 18 66 21 205 21 140 0 337 19 352 33 2 3 -19 23 -49
45 -159 119 -415 216 -789 296 -90 19 -189 44 -219 54 -140 48 -277 137 -371
240 -28 31 -57 60 -63 63 -6 3 -60 -9 -121 -27z m-570 -514 c-9 -55 -28 -136
-43 -180 l-28 -81 -23 25 -24 26 30 57 c32 61 92 228 94 260 0 11 3 13 6 5 3
-7 -2 -58 -12 -112z m165 -315 c45 -23 61 -64 58 -145 l-3 -69 -105 98 -105
98 30 16 c38 21 88 21 125 2z"/>
<path d="M2810 335 l-74 -75 64 0 c36 0 75 3 88 6 21 6 22 10 16 53 -15 100
-11 100 -94 16z"/>
</g>
</svg>
