<?xml version="1.0" standalone="no"?>
<!DOCTYPE svg PUBLIC "-//W3C//DTD SVG 20010904//EN"
 "http://www.w3.org/TR/2001/REC-SVG-20010904/DTD/svg10.dtd">
<svg id="logo-svg" class="line-drawing-demo lines" version="1.0" xmlns="http://www.w3.org/2000/svg"
 width="200.000000pt" height="200.000000pt" viewBox="0 0 500.000000 500.000000"
 preserveAspectRatio="xMidYMid meet">

<g transform="translate(0.000000,500.000000) scale(0.100000,-0.100000)"
fill="#6c3d12" stroke="none">
<path d="M2260 3785 l0 -215 240 0 240 0 0 215 0 215 -240 0 -240 0 0 -215z
m278 143 c7 -7 12 -24 12 -38 0 -33 -17 -50 -50 -50 -33 0 -50 17 -50 50 0 33
17 50 50 50 14 0 31 -5 38 -12z"/>
<path d="M2472 3918 c-25 -25 -6 -68 30 -68 9 0 22 9 28 20 22 40 -26 80 -58
48z m48 -28 c0 -13 -7 -20 -20 -20 -13 0 -20 7 -20 20 0 13 7 20 20 20 13 0
20 -7 20 -20z"/>
<path d="M2340 3450 l0 -80 160 0 160 0 0 80 0 80 -160 0 -160 0 0 -80z"/>
<path d="M2190 3280 l0 -40 310 0 310 0 0 40 0 40 -310 0 -310 0 0 -40z"/>
<path d="M1650 2120 l0 -1070 200 0 c114 0 200 4 200 9 0 5 -22 25 -49 45 -97
71 -185 215 -186 305 0 42 1 44 40 58 22 8 75 17 118 20 l78 6 -3 461 -3 461
-60 388 -59 387 -138 0 -138 0 0 -1070z"/>
<path d="M1950 3175 c0 -28 90 -607 96 -616 5 -8 144 -810 144 -831 0 -3 30
-21 68 -39 37 -18 69 -35 73 -36 3 -2 15 15 28 37 27 49 119 150 136 150 16 0
105 -95 135 -145 13 -22 25 -42 26 -44 2 -2 31 11 65 28 34 17 68 31 75 31 7
0 16 15 19 33 12 65 137 830 180 1102 24 154 47 295 50 313 l6 32 -184 0 -185
0 -6 -32 c-3 -18 -42 -298 -86 -623 -44 -324 -83 -603 -87 -619 -6 -19 -35
172 -96 615 -48 354 -88 647 -87 652 0 4 -83 7 -185 7 -158 0 -185 -2 -185
-15z"/>
<path d="M3065 3158 c-3 -18 -30 -196 -60 -396 l-55 -362 0 -460 0 -460 48 -1
c26 0 76 -8 112 -17 l65 -17 -2 -45 c-4 -77 -71 -197 -153 -273 -39 -36 -70
-68 -70 -71 0 -3 90 -6 200 -6 l200 0 0 1070 0 1070 -140 0 -139 0 -6 -32z"/>
<path d="M2440 1763 c-23 -27 -52 -67 -63 -91 l-21 -42 41 -43 c23 -23 54 -63
70 -89 l30 -47 41 64 c23 35 55 74 71 88 l30 25 -23 41 c-28 54 -103 141 -121
141 -7 0 -32 -21 -55 -47z"/>
<path d="M2200 1684 c0 -4 9 -61 20 -128 17 -98 25 -125 43 -140 l22 -18 7 73
c5 41 14 93 22 116 l15 42 -53 31 c-52 29 -76 37 -76 24z"/>
<path d="M2745 1671 c-77 -36 -78 -38 -61 -111 9 -36 16 -88 16 -117 l0 -52
33 19 c32 19 34 23 51 132 9 62 19 121 22 131 7 22 -10 22 -61 -2z"/>
<path d="M2331 1566 c-6 -25 -11 -78 -11 -119 0 -69 2 -75 31 -103 17 -16 46
-51 65 -79 31 -46 34 -48 34 -23 0 15 7 63 16 107 l16 80 -27 49 c-15 27 -46
69 -70 92 l-42 41 -12 -45z"/>
<path d="M2604 1568 c-23 -24 -54 -66 -69 -92 -27 -45 -27 -50 -16 -99 7 -29
16 -77 20 -107 l7 -55 16 31 c10 17 38 53 64 80 l47 48 -1 76 c0 41 -7 95 -14
119 l-13 43 -41 -44z"/>
<path d="M1925 1465 c-5 -2 -30 -9 -54 -15 -43 -11 -43 -12 -38 -49 12 -89
111 -241 186 -284 l31 -18 -2 183 -3 183 -55 2 c-30 1 -59 0 -65 -2z"/>
<path d="M2950 1281 c0 -111 4 -181 10 -181 5 0 34 25 65 56 57 59 119 170
130 235 6 35 6 36 -37 48 -24 8 -71 16 -105 19 l-63 5 0 -182z"/>
<path d="M2250 1389 c0 -37 41 -243 50 -254 10 -13 81 -45 129 -60 22 -7 20
-2 -16 41 -50 60 -81 121 -103 198 -10 37 -25 65 -38 74 -18 12 -22 12 -22 1z"/>
<path d="M2721 1381 c-15 -11 -32 -45 -46 -90 -25 -78 -54 -128 -113 -193 -34
-38 -35 -40 -12 -34 28 9 138 60 158 73 9 7 51 209 52 256 0 12 -13 8 -39 -12z"/>
<path d="M2480 1324 c-13 -62 -8 -181 9 -211 8 -14 11 -11 18 22 11 55 9 207
-4 230 -9 16 -13 10 -23 -41z"/>
<path d="M2330 1328 c1 -46 106 -228 132 -228 14 0 -35 114 -73 172 -41 60
-59 77 -59 56z"/>
<path d="M2622 1295 c-37 -46 -87 -138 -96 -180 l-7 -30 36 40 c40 45 109 177
103 196 -2 7 -17 -4 -36 -26z"/>
<path d="M2302 1083 c3 -27 5 -28 68 -30 65 -2 65 -2 29 11 -20 8 -50 21 -68
31 l-32 16 3 -28z"/>
<path d="M2635 1079 l-60 -29 68 0 67 0 0 30 c0 17 -3 30 -7 29 -5 0 -35 -14
-68 -30z"/>
</g>
</svg>
